<svg width="40" height="40" viewBox="0 0 40 40" fill="none" xmlns="http://www.w3.org/2000/svg">
<g clip-path="url(#clip0_26_2)">
<path d="M9.33331 0V13.3333M30.6666 0V13.3333M7.99998 20H16M32 20H24M7.99998 28H16M24 28H32M3.99998 6.66667H36C36.7072 6.66667 37.3855 6.94762 37.8856 7.44772C38.3857 7.94781 38.6666 8.62609 38.6666 9.33333V36C38.6666 36.7072 38.3857 37.3855 37.8856 37.8856C37.3855 38.3857 36.7072 38.6667 36 38.6667H3.99998C3.29274 38.6667 2.61446 38.3857 2.11436 37.8856C1.61426 37.3855 1.33331 36.7072 1.33331 36V9.33333C1.33331 8.62609 1.61426 7.94781 2.11436 7.44772C2.61446 6.94762 3.29274 6.66667 3.99998 6.66667Z" stroke="#010220"/>
</g>
<defs>
<clipPath id="clip0_26_2">
<rect width="40" height="40" fill="white"/>
</clipPath>
</defs>
</svg>
