<svg width="40" height="40" viewBox="0 0 40 40" fill="none" xmlns="http://www.w3.org/2000/svg">
<path d="M6.66668 31.6667L5.11668 31.05C5.00593 31.3287 4.97241 31.632 5.01966 31.9282C5.06691 32.2243 5.19317 32.5022 5.38514 32.7325C5.57711 32.9629 5.82767 33.1372 6.11042 33.2371C6.39316 33.3369 6.69762 33.3587 6.99168 33.3L6.66668 31.6667ZM14.51 30.1067L15.3 28.6383L14.7717 28.355L14.185 28.4717L14.51 30.1067ZM9.37335 24.8617L10.9233 25.4783L11.195 24.7883L10.8683 24.1233L9.37335 24.8617ZM31.6667 20C31.6667 25.41 26.9117 30 20.7833 30V33.3333C28.5183 33.3333 35 27.4767 35 20H31.6667ZM9.90168 20C9.90168 14.59 14.6583 9.99999 20.785 9.99999V6.66666C13.05 6.66666 6.56668 12.5233 6.56668 20H9.90168ZM20.785 9.99999C26.9117 9.99999 31.6667 14.59 31.6667 20H35C35 12.5233 28.52 6.66666 20.785 6.66666V9.99999ZM20.7833 30C18.775 30 16.905 29.5 15.3 28.6383L13.72 31.5733C15.8922 32.7378 18.3187 33.3427 20.7833 33.3333V30ZM6.99168 33.3L14.835 31.74L14.185 28.4717L6.34168 30.0317L6.99168 33.3017V33.3ZM10.8683 24.1233C10.2339 22.8412 9.90421 21.4305 9.90168 20H6.56668C6.56668 22 7.03668 23.8967 7.87668 25.6L10.8683 24.1233ZM7.82502 24.245L5.11668 31.0517L8.21335 32.2817L10.92 25.4767L7.82335 24.245H7.82502Z" fill="#010220"/>
<path d="M15 21.6666C15.9205 21.6666 16.6667 20.9205 16.6667 20C16.6667 19.0795 15.9205 18.3333 15 18.3333C14.0796 18.3333 13.3334 19.0795 13.3334 20C13.3334 20.9205 14.0796 21.6666 15 21.6666Z" fill="#010220"/>
<path d="M20.8334 21.6666C21.7538 21.6666 22.5 20.9205 22.5 20C22.5 19.0795 21.7538 18.3333 20.8334 18.3333C19.9129 18.3333 19.1667 19.0795 19.1667 20C19.1667 20.9205 19.9129 21.6666 20.8334 21.6666Z" fill="#010220"/>
<path d="M26.6667 21.6666C27.5871 21.6666 28.3333 20.9205 28.3333 20C28.3333 19.0795 27.5871 18.3333 26.6667 18.3333C25.7462 18.3333 25 19.0795 25 20C25 20.9205 25.7462 21.6666 26.6667 21.6666Z" fill="#010220"/>
</svg>
