<svg width="24" height="25" viewBox="0 0 24 25" fill="none" xmlns="http://www.w3.org/2000/svg">
<path fill-rule="evenodd" clip-rule="evenodd" d="M3 4.82148C3 4.41418 3.15804 4.02357 3.43934 3.73557C3.72064 3.44756 4.10218 3.28577 4.5 3.28577H19.5C19.8978 3.28577 20.2794 3.44756 20.5607 3.73557C20.842 4.02357 21 4.41418 21 4.82148V6.95715C20.9999 7.50017 20.7891 8.0209 20.414 8.40481L15 13.9477V21.5485C15 21.7405 14.9521 21.9293 14.8608 22.097C14.7695 22.2647 14.6379 22.4057 14.4783 22.5066C14.3188 22.6076 14.1368 22.6651 13.9494 22.6737C13.7621 22.6823 13.5757 22.6418 13.408 22.5559L9.691 20.6537C9.48337 20.5474 9.30875 20.384 9.1867 20.1818C9.06466 19.9797 9.00001 19.7467 9 19.5091V13.9477L3.586 8.40481C3.2109 8.0209 3.00011 7.50017 3 6.95715V4.82148Z" fill="#010220"/>
</svg>
