<svg width="40" height="40" viewBox="0 0 40 40" fill="none" xmlns="http://www.w3.org/2000/svg">
<path d="M20 17.7555C22.921 17.7555 25.2889 15.4175 25.2889 12.5333C25.2889 9.64916 22.921 7.3111 20 7.3111C17.079 7.3111 14.7111 9.64916 14.7111 12.5333C14.7111 15.4175 17.079 17.7555 20 17.7555Z" fill="#010220"/>
<path d="M11.9778 13.0556H12.5111V12.5778C12.5144 11.1885 12.9063 9.82775 13.6427 8.64959C14.379 7.47144 15.4304 6.52285 16.6778 5.91113C16.3085 5.06064 15.7158 4.32605 14.9625 3.78539C14.2093 3.24472 13.3236 2.91817 12.3997 2.84041C11.4758 2.76265 10.548 2.93659 9.71499 3.34376C8.88197 3.75092 8.17478 4.37611 7.66854 5.15291C7.16229 5.92971 6.8759 6.82913 6.83977 7.75563C6.80363 8.68213 7.01912 9.60111 7.46333 10.415C7.90754 11.2288 8.56389 11.9072 9.36268 12.378C10.1615 12.8488 11.0728 13.0945 12 13.0889L11.9778 13.0556ZM27.5111 12.5333V13.0111H28.0445C28.9593 13.0019 29.8548 12.7463 30.6366 12.2711C31.4184 11.7959 32.0576 11.1188 32.487 10.3109C32.9164 9.50305 33.12 8.59437 33.0765 7.68052C33.033 6.76667 32.744 5.88145 32.2398 5.11803C31.7356 4.35461 31.0349 3.74123 30.2115 3.34246C29.3881 2.94368 28.4724 2.77426 27.5609 2.85202C26.6493 2.92978 25.7755 3.25185 25.0316 3.78433C24.2876 4.31681 23.701 5.04001 23.3334 5.87779C24.5812 6.48712 25.6337 7.43331 26.3719 8.60943C27.1102 9.78556 27.5048 11.1447 27.5111 12.5333ZM24.7667 18.2778C26.9757 18.7158 29.1116 19.4639 31.1111 20.5C31.3929 20.6546 31.648 20.8534 31.8667 21.0889H37.7778V17.2889C37.7789 17.1432 37.7401 16.9999 37.6657 16.8746C37.5913 16.7492 37.4841 16.6466 37.3556 16.5778C34.4757 15.0715 31.2722 14.2897 28.0223 14.3H27.2889C26.9038 15.8653 26.0182 17.262 24.7667 18.2778ZM7.25558 23.2445C7.25355 22.6849 7.40468 22.1354 7.69259 21.6556C7.98049 21.1757 8.39421 20.7838 8.88892 20.5222C10.8884 19.4862 13.0244 18.738 15.2334 18.3C13.9879 17.2928 13.1028 15.9087 12.7111 14.3556H11.9778C8.72784 14.3452 5.52431 15.127 2.64447 16.6333C2.51599 16.7022 2.40876 16.8048 2.33435 16.9301C2.25993 17.0554 2.22117 17.1987 2.22225 17.3445V24.4445H7.25558V23.2445ZM23.8445 29.6556H30.4667V31.2111H23.8445V29.6556Z" fill="#010220"/>
<path d="M36.4556 23.6222H28.8223V22.5111C28.8223 22.2164 28.7052 21.9338 28.4968 21.7254C28.2884 21.5171 28.0058 21.4 27.7111 21.4C27.4165 21.4 27.1338 21.5171 26.9255 21.7254C26.7171 21.9338 26.6 22.2164 26.6 22.5111V23.6222H24.4445V20.4778C22.9828 20.1695 21.4938 20.0095 20 20C16.4933 19.9868 13.0368 20.8337 9.93336 22.4667C9.79515 22.5384 9.67946 22.6469 9.59906 22.7802C9.51867 22.9136 9.4767 23.0665 9.4778 23.2222V29.4556H17.3778V36.2222C17.3778 36.5169 17.4949 36.7995 17.7032 37.0079C17.9116 37.2163 18.1942 37.3333 18.4889 37.3333H36.4556C36.7503 37.3333 37.0329 37.2163 37.2413 37.0079C37.4496 36.7995 37.5667 36.5169 37.5667 36.2222V24.7333C37.5667 24.4386 37.4496 24.156 37.2413 23.9477C37.0329 23.7393 36.7503 23.6222 36.4556 23.6222ZM35.3445 35.1333H19.6V25.8444H26.6V26.8556C26.6 27.1502 26.7171 27.4329 26.9255 27.6412C27.1338 27.8496 27.4165 27.9667 27.7111 27.9667C28.0058 27.9667 28.2884 27.8496 28.4968 27.6412C28.7052 27.4329 28.8223 27.1502 28.8223 26.8556V25.8444H35.3445V35.1333Z" fill="#010220"/>
</svg>
