<svg width="34" height="34" viewBox="0 0 34 34" fill="none" xmlns="http://www.w3.org/2000/svg">
<path d="M22.8704 21.7237C22.7224 21.7261 22.5753 21.6992 22.4377 21.6446C22.3 21.59 22.1745 21.5088 22.0684 21.4056C21.9622 21.3023 21.8774 21.1792 21.819 21.0432C21.7605 20.9071 21.7294 20.7609 21.7276 20.6128L21.631 13.7869L12.0251 23.6686C11.8171 23.8826 11.5327 24.0051 11.2343 24.0094C10.936 24.0136 10.6482 23.8991 10.4342 23.6912C10.2203 23.4832 10.0977 23.1987 10.0935 22.9004C10.0893 22.6021 10.2038 22.3143 10.4117 22.1003L20.0176 12.2185L13.1903 12.3139C12.8914 12.3181 12.6031 12.2034 12.3888 11.9951C12.1745 11.7868 12.0517 11.5018 12.0475 11.203C12.0433 10.9041 12.1579 10.6158 12.3663 10.4015C12.5746 10.1872 12.8595 10.0644 13.1584 10.0602L22.7034 9.92507C22.8514 9.92272 22.9985 9.94961 23.1361 10.0042C23.2737 10.0588 23.3992 10.14 23.5054 10.2433C23.6116 10.3465 23.6963 10.4696 23.7548 10.6056C23.8133 10.7417 23.8443 10.8879 23.8462 11.036L23.9813 20.5809C23.9836 20.729 23.9567 20.876 23.9021 21.0137C23.8475 21.1513 23.7663 21.2768 23.6631 21.383C23.5599 21.4891 23.4367 21.5739 23.3007 21.6324C23.1647 21.6908 23.0185 21.7219 22.8704 21.7237Z" fill="#04A928"/>
</svg>
