<svg width="80" height="80" viewBox="0 0 80 80" fill="none" xmlns="http://www.w3.org/2000/svg">
<path d="M8.33333 9.16669C8.33333 8.50365 8.06994 7.86776 7.6011 7.39892C7.13226 6.93008 6.49637 6.66669 5.83333 6.66669C5.17029 6.66669 4.53441 6.93008 4.06557 7.39892C3.59672 7.86776 3.33333 8.50365 3.33333 9.16669V70.8334C3.33333 72.2134 4.45333 73.3334 5.83333 73.3334H66.6667C67.3297 73.3334 67.9656 73.07 68.4344 72.6011C68.9033 72.1323 69.1667 71.4964 69.1667 70.8334C69.1667 70.1703 68.9033 69.5344 68.4344 69.0656C67.9656 68.5967 67.3297 68.3334 66.6667 68.3334H8.33333V9.16669Z" fill="#010220"/>
<path d="M74.2667 25.9333C74.7083 25.4594 74.9487 24.8326 74.9372 24.1849C74.9258 23.5372 74.6634 22.9193 74.2054 22.4612C73.7474 22.0032 73.1294 21.7408 72.4817 21.7294C71.8341 21.718 71.2072 21.9584 70.7333 22.4L51.6667 41.4666L39.2667 29.0666C38.7979 28.5985 38.1625 28.3355 37.5 28.3355C36.8375 28.3355 36.2021 28.5985 35.7333 29.0666L15.7333 49.0666C15.4877 49.2955 15.2907 49.5715 15.1541 49.8782C15.0174 50.1848 14.9439 50.5159 14.938 50.8516C14.9321 51.1872 14.9939 51.5207 15.1196 51.832C15.2453 52.1433 15.4325 52.426 15.6699 52.6634C15.9073 52.9008 16.19 53.088 16.5013 53.2137C16.8126 53.3395 17.1461 53.4012 17.4817 53.3953C17.8174 53.3894 18.1485 53.3159 18.4551 53.1792C18.7618 53.0426 19.0378 52.8456 19.2667 52.6L37.5 34.3666L49.9 46.7666C50.3687 47.2348 51.0042 47.4978 51.6667 47.4978C52.3292 47.4978 52.9646 47.2348 53.4333 46.7666L74.2667 25.9333Z" fill="#04A928"/>
</svg>
